<svg width="181" height="193" viewBox="0 0 181 193" fill="none" xmlns="http://www.w3.org/2000/svg">
<ellipse cx="90" cy="102.708" rx="90" ry="89.3502" fill="#F2EDF0"/>
<path d="M110.603 15.4402C108.862 15.049 107.13 16.1273 106.734 17.8478C106.338 19.5683 107.429 21.2806 109.17 21.6717C151.868 31.2597 179.971 71.6251 173.768 114.457C167.565 157.289 129.135 188.246 85.4293 185.617C41.7246 182.987 7.37873 147.651 6.48111 104.391C5.58348 61.1322 38.4348 24.4342 81.9944 20.0365L71.4505 30.0893C70.1718 31.3151 70.1377 33.3324 71.3747 34.5993C72.6117 35.8662 74.6528 35.9055 75.9386 34.6865L92.6042 18.7958C93.0049 18.4545 93.3132 18.02 93.5003 17.5308C93.5575 17.3433 93.5965 17.1509 93.6174 16.9563C93.6704 16.7808 93.7071 16.6008 93.7272 16.4189C93.7272 16.3796 93.706 16.3474 93.7045 16.3085C93.7037 16.2194 93.748 16.1374 93.7397 16.0476C93.6908 15.8099 93.6143 15.579 93.5109 15.3593C93.4806 15.2751 93.4644 15.1883 93.4272 15.1074C93.2784 14.7743 93.0712 14.4704 92.8144 14.2092L92.7406 14.1332C92.6088 13.9667 92.4603 13.814 92.2974 13.6774L72.7636 0.977729C71.2732 0.00800273 69.2693 0.41558 68.2879 1.88869C67.3066 3.36144 67.7191 5.34168 69.2098 6.31141L80.6692 13.7623C34.7958 18.7685 0.0590844 57.0444 0 102.651C0.0113624 149.447 36.5312 188.322 83.7563 191.806C130.981 195.291 172.939 162.207 179.983 115.931C187.028 69.6554 156.776 25.8384 110.603 15.4402Z" fill="black"/>
<path d="M60.5542 52.0167C60.4509 52.0439 60.3495 52.0767 60.2502 52.1148C60.1444 52.1922 60.0441 52.2767 59.9499 52.3671C50.7379 57.5323 43.0592 64.8502 37.6397 73.6298C37.5445 73.7199 37.4559 73.8159 37.3742 73.9171C37.335 74.0113 37.301 74.1073 37.2724 74.2054C26.2425 92.4637 26.2425 114.937 37.2724 133.196C37.301 133.293 37.3347 133.39 37.3742 133.484C37.4852 133.655 37.6144 133.814 37.7598 133.959C43.1724 142.656 50.806 149.906 59.9499 155.034C60.0441 155.124 60.144 155.209 60.2502 155.286C60.3857 155.351 60.526 155.406 60.6699 155.451C79.7688 165.872 103.231 165.872 122.33 155.451C122.474 155.406 122.615 155.351 122.75 155.286C122.856 155.209 122.956 155.124 123.05 155.034C132.194 149.906 139.828 142.656 145.24 133.959C145.385 133.814 145.514 133.655 145.626 133.484C145.665 133.39 145.699 133.294 145.728 133.196C156.757 114.937 156.757 92.4637 145.728 74.2054C145.699 74.1076 145.665 74.0113 145.626 73.9171C145.545 73.8166 145.457 73.7213 145.362 73.6323C139.942 64.8512 132.263 57.5326 123.05 52.3671C122.906 52.1779 122.689 52.0519 122.447 52.0174C103.29 41.5059 79.7113 41.5055 60.5542 52.0167ZM94.6252 53.0686V50.2412C102.364 50.6377 109.931 52.5671 116.844 55.9058L115.356 58.3619C114.494 59.7866 115.006 61.6074 116.501 62.4297C117.995 63.252 119.906 62.7641 120.769 61.3404L122.264 58.8743C128.743 62.9278 134.28 68.205 138.533 74.3799L135.946 75.8042C134.452 76.6272 133.94 78.4481 134.803 79.8724C135.666 81.2968 137.576 81.7854 139.071 80.9638L141.648 79.5451C145.151 86.1335 147.176 93.3457 147.592 100.721H144.625C142.899 100.721 141.5 102.055 141.5 103.699C141.5 105.344 142.899 106.678 144.625 106.678H147.592C147.176 114.053 145.151 121.265 141.648 127.854L139.071 126.435C138.104 125.902 136.912 125.902 135.945 126.434C134.978 126.967 134.381 127.951 134.382 129.015C134.382 130.08 134.978 131.063 135.946 131.595L138.534 133.019C134.281 139.194 128.743 144.472 122.264 148.525L120.77 146.059C120.212 145.137 119.18 144.568 118.063 144.568C116.946 144.568 115.913 145.136 115.355 146.058C114.796 146.98 114.797 148.116 115.356 149.037L116.844 151.493C109.931 154.832 102.364 156.762 94.6252 157.158V154.331C94.6252 152.686 93.2263 151.352 91.5004 151.352C89.7744 151.352 88.3755 152.686 88.3755 154.331V157.158C80.6368 156.762 73.0694 154.832 66.1565 151.493L67.6451 149.037C68.5068 147.613 67.9945 145.792 66.5 144.969C65.0055 144.147 63.0949 144.635 62.2314 146.059L60.7369 148.525C54.2579 144.471 48.7205 139.194 44.4673 133.019L47.055 131.595C48.0225 131.063 48.619 130.08 48.6194 129.015C48.6198 127.95 48.024 126.966 47.0564 126.434C46.0889 125.902 44.8973 125.902 43.9301 126.435L41.3531 127.853C37.8499 121.265 35.8255 114.053 35.4095 106.677H38.3762C40.1021 106.677 41.501 105.344 41.501 103.699C41.501 102.054 40.1017 100.721 38.3762 100.721H35.4095C35.8255 93.3454 37.8499 86.1332 41.3531 79.5447L43.9301 80.9635C44.8973 81.4961 46.0893 81.4964 47.0564 80.9642C48.0236 80.4319 48.6198 79.448 48.6194 78.3835C48.619 77.319 48.0229 76.3354 47.055 75.8035L44.4673 74.3792C48.7205 68.2043 54.2579 62.9267 60.7369 58.8732L62.2314 61.3394C62.7892 62.2619 63.8211 62.8301 64.9384 62.8304C66.0554 62.8308 67.0877 62.2629 67.6462 61.3408C68.2047 60.4187 68.2043 59.283 67.6455 58.3612L66.1568 55.9051C73.0698 52.5664 80.6371 50.637 88.3759 50.2405V53.0679C88.3759 54.7129 89.7748 56.0461 91.5007 56.0461C93.2267 56.0461 94.6252 54.7136 94.6252 53.0686Z" fill="black"/>
<path d="M88.6928 70.9383V92.2096C82.5969 93.6507 78.5194 98.9377 79.0456 104.719C79.5715 110.5 84.5471 115.087 90.8182 115.572C97.0894 116.057 102.824 112.298 104.388 106.678H117.769C119.554 106.678 121 105.345 121 103.7C121 102.055 119.554 100.722 117.769 100.722H104.388C103.21 96.5522 99.6775 93.2958 95.1544 92.21V70.9387C95.1544 69.2937 93.7081 67.9604 91.9238 67.9604C90.1394 67.9604 88.6928 69.2934 88.6928 70.9383ZM98.385 103.7C98.3804 106.988 95.4902 109.653 91.9234 109.657C88.3547 109.657 85.4618 106.99 85.4618 103.7C85.4618 100.41 88.3547 97.7434 91.9234 97.7434C95.4921 97.7434 98.385 100.41 98.385 103.7Z" fill="black"/>
<ellipse cx="92" cy="103.204" rx="7" ry="6.45307" fill="#29A639"/>
</svg>
