<svg width="180" height="203" viewBox="0 0 180 203" fill="none" xmlns="http://www.w3.org/2000/svg">
<ellipse cx="90" cy="112.708" rx="90" ry="89.3502" fill="#F2EDF0"/>
<g clip-path="url(#clip0)">
<path d="M35.0193 16.3189C42.9023 16.3189 50.0878 19.2824 55.5084 24.1474C63.1377 12.0246 76.6976 3.95825 92.1574 3.95825C106.442 3.95825 119.104 10.8444 126.965 21.4532C131.829 18.211 137.682 16.3185 143.98 16.3185C160.859 16.3185 174.543 29.9023 174.543 46.659C174.543 62.8622 161.748 76.098 145.641 76.9546L138.727 172.81H43.5944L36.6804 76.9546C36.1304 76.9838 35.5769 76.9996 35.0193 76.9996C18.1403 76.9999 4.45703 63.4161 4.45703 46.6594C4.45703 29.9026 18.1403 16.3189 35.0193 16.3189Z" fill="white"/>
<path d="M142.397 125.377C144.307 125.377 145.854 123.84 145.854 121.945C145.854 120.049 144.307 118.513 142.397 118.513C140.488 118.513 138.94 120.049 138.94 121.945C138.94 123.84 140.488 125.377 142.397 125.377Z" fill="black"/>
<path d="M175.324 33.5104C173.61 29.4877 171.159 25.8768 168.033 22.7746C164.912 19.6758 161.271 17.24 157.22 15.5394C153.026 13.7771 148.574 12.8837 143.979 12.8837H143.972C141.103 12.8837 138.247 13.241 135.485 13.9452C132.81 14.6289 130.22 15.639 127.786 16.948C118.902 6.51137 105.914 0.523438 92.1581 0.523438C88.4003 0.523438 84.6667 0.966518 81.0507 1.84581C77.5383 2.698 74.1228 3.96203 70.9012 5.60428C67.738 7.21563 64.7511 9.19079 62.0304 11.4786C59.327 13.753 56.8795 16.3364 54.7634 19.15C51.9463 17.1539 48.8553 15.6046 45.5712 14.5431C42.1729 13.44 38.626 12.8837 35.0272 12.8837H35.0203C30.4259 12.8837 25.9732 13.7771 21.7795 15.5394C17.7279 17.24 14.0876 19.6758 10.9663 22.7746C7.84112 25.8768 5.38628 29.4874 3.6754 33.5104C1.90194 37.6739 1 42.0989 1 46.6611C1 55.4146 4.36335 63.7178 10.4619 70.0325C13.4315 73.1069 16.9023 75.567 20.7811 77.3431C24.7778 79.1741 29.0434 80.2014 33.4615 80.4008L40.1478 173.054C40.21 173.927 40.5972 174.731 41.2398 175.325C41.8797 175.919 42.7163 176.246 43.5944 176.246H138.728C139.606 176.246 140.443 175.919 141.083 175.325C141.725 174.731 142.113 173.927 142.175 173.054L144.733 137.608C144.799 136.69 144.501 135.807 143.896 135.113C143.291 134.42 142.451 134 141.532 133.935C141.449 133.928 141.362 133.925 141.28 133.925C139.478 133.925 137.968 135.326 137.836 137.113V137.116L136.525 155.304H115.865L116.664 143.939C116.798 142.046 115.361 140.405 113.457 140.272C111.553 140.138 109.9 141.567 109.767 143.46L108.934 155.304H73.2475L72.414 143.46C72.2809 141.567 70.6312 140.139 68.7243 140.272C66.8195 140.405 65.3834 142.046 65.5168 143.939L66.3165 155.304H45.9414C45.893 155.304 45.8456 155.309 45.7976 155.311L40.3618 79.9704C43.8509 79.3578 47.4065 78.1641 50.6544 76.4923C52.3497 75.6196 53.0124 73.5466 52.1343 71.8618C51.2562 70.1777 49.1713 69.5187 47.4746 70.3911C43.9761 72.1919 40.071 73.3039 36.4702 73.5277C35.9717 73.5507 35.486 73.5644 35.0206 73.5644C27.7816 73.5644 20.9747 70.7645 15.8514 65.6837C10.735 60.5953 7.91406 53.841 7.91406 46.6611C7.91406 39.4774 10.735 32.72 15.8514 27.6358C20.9747 22.5549 27.7816 19.755 35.0206 19.755C40.8267 19.755 46.4299 21.5981 51.0661 24.9824C49.8209 27.2153 48.8571 29.2952 48.1539 31.2775C47.5195 33.067 48.4647 35.0291 50.2655 35.6596C50.6454 35.7928 51.0333 35.8559 51.4142 35.8559C52.8396 35.8559 54.174 34.9732 54.6749 33.5612C55.489 31.2648 58.7127 25.593 58.776 25.4516C66.1502 14.1337 78.5785 7.39444 92.1578 7.39444C104.793 7.39444 116.358 13.1476 123.948 23.1885C123.98 23.2376 128.353 30.0197 129.532 33.2582C130.041 34.6564 131.368 35.5261 132.783 35.5261C133.173 35.5261 133.57 35.4599 133.958 35.3202C135.754 34.6749 136.683 32.7053 136.033 30.9209C135.029 28.1616 133.632 25.3696 131.876 22.5844C135.615 20.728 139.739 19.755 143.979 19.755C151.218 19.755 158.025 22.5549 163.148 27.6358C168.264 32.72 171.082 39.4774 171.085 46.6611C171.092 60.9595 159.833 72.7599 145.454 73.5263C145.362 73.5311 144.28 73.5263 143.775 73.5263C139.2 73.5263 134.896 72.3546 130.619 69.9436C128.959 69.0077 126.849 69.5867 125.907 71.2368C124.965 72.8869 125.548 74.9839 127.208 75.9199C131.911 78.5704 136.854 80.0517 141.929 80.341L140.058 106.276C139.923 108.165 141.358 109.811 143.26 109.948C143.343 109.955 143.426 109.959 143.508 109.959H143.512C145.313 109.959 146.828 108.557 146.956 106.767L148.881 80.0843C156.894 78.937 164.258 74.9551 169.609 68.8676C172.261 65.8581 174.328 62.4469 175.763 58.7262C177.246 54.8785 178 50.8177 178 46.6611C178 42.0989 177.098 37.6739 175.324 33.5104ZM136.029 162.174L135.51 169.374H46.8126L46.293 162.174H136.029Z" fill="black"/>
<path d="M46 161.354H136.259L135.505 170.289H46.4945L46 161.354Z" fill="#29A639"/>
</g>
<defs>
<clipPath id="clip0">
<rect width="177" height="175.722" fill="white" transform="translate(1 0.523438)"/>
</clipPath>
</defs>
</svg>
