<svg width="246" height="246" viewBox="0 0 246 246" fill="none" xmlns="http://www.w3.org/2000/svg">
<ellipse cx="123" cy="155.708" rx="90" ry="89.3502" fill="#F2EDF0"/>
<path d="M199.942 197.538H163.815L172.404 181.235C175.46 175.393 175.436 168.413 172.338 162.593L170.153 158.484L185.805 150.693C188.82 156.211 195.726 158.234 201.231 155.212C206.736 152.191 208.755 145.268 205.74 139.75C204.377 137.254 202.13 135.36 199.442 134.441C199.201 134.358 198.956 134.284 198.712 134.219C201.135 128.415 198.406 121.742 192.617 119.313C186.827 116.884 180.169 119.619 177.746 125.423C176.579 128.217 176.57 131.361 177.722 134.162L161.568 142.337L157.567 134.825C154.826 129.663 149.958 125.97 144.257 124.727L123.27 120.142C117.288 118.837 111.038 119.727 105.655 122.648L71.1158 141.392C61.0313 146.867 54.7525 157.443 54.7624 168.938C54.7561 175.133 56.4888 181.205 59.7628 186.46L66.6695 197.538H46.5233C41.8159 197.538 38 201.363 38 206.081C38 210.799 41.8159 214.624 46.5233 214.624H60.956C62.367 224.423 70.739 231.699 80.6164 231.71H165.849C175.727 231.699 184.099 224.423 185.51 214.624H199.942C204.65 214.624 208.466 210.799 208.466 206.081C208.466 201.363 204.65 197.538 199.942 197.538ZM185.322 136.693L183.154 132.396C181.74 129.588 182.865 126.163 185.666 124.745C188.467 123.328 191.885 124.455 193.299 127.263C194.713 130.071 193.589 133.496 190.788 134.913L190.819 134.973L190.757 135.002L193.265 140.128C196.081 138.739 199.487 139.902 200.872 142.724C202.257 145.546 201.098 148.96 198.282 150.348C195.466 151.737 192.06 150.575 190.675 147.752C190.675 147.752 190.675 147.751 190.674 147.751L188.379 143.069L167.491 153.464L165.281 149.323L164.238 147.367L185.322 136.693ZM158.653 149.044L161.363 154.067L163.068 157.254L153.547 175.092C151.139 179.886 146.234 182.905 140.879 182.889H139.995C130.693 182.889 123.153 175.332 123.153 166.008C123.153 163.045 123.931 160.134 125.409 157.567L126.17 156.246C128.714 151.848 133.398 149.137 138.47 149.126L158.653 149.044ZM64.5756 183.444C61.8687 179.092 60.4372 174.064 60.4446 168.935C60.439 159.528 65.5799 150.875 73.8347 146.398L108.345 127.657C112.533 125.382 117.397 124.689 122.051 125.707L143.041 130.292C147.113 131.18 150.589 133.817 152.547 137.505L155.672 143.36L138.458 143.431C131.359 143.445 124.803 147.241 121.244 153.398L120.483 154.719C114.263 165.518 117.954 179.325 128.727 185.56C132.153 187.543 136.039 188.586 139.995 188.585H140.893C148.37 188.612 155.222 184.409 158.602 177.723L166.29 163.302L167.341 165.273C169.552 169.429 169.57 174.412 167.389 178.583L157.388 197.538H73.3688L64.5756 183.444ZM165.849 226.015H80.6164C73.8681 226.008 68.0534 221.25 66.695 214.624H179.771C178.412 221.25 172.597 226.008 165.849 226.015ZM199.942 208.929H46.5233C44.9543 208.929 43.6822 207.654 43.6822 206.081C43.6822 204.508 44.9543 203.233 46.5233 203.233H199.942C201.511 203.233 202.783 204.508 202.783 206.081C202.783 207.654 201.511 208.929 199.942 208.929Z" fill="black"/>
<path d="M80.8588 160.134L91.3168 150.222C92.4336 149.119 92.4382 147.326 91.3271 146.217C90.2491 145.141 88.5083 145.1 87.38 146.124L76.9192 156.036C75.7792 157.117 75.7372 158.909 76.8251 160.041C77.913 161.172 79.7188 161.214 80.8588 160.134Z" fill="black"/>
<path d="M100.828 160.134L111.286 150.222C112.402 149.119 112.407 147.326 111.296 146.217C110.218 145.141 108.477 145.1 107.349 146.124L96.888 156.036C95.748 157.117 95.706 158.909 96.7939 160.041C97.8819 161.172 99.6876 161.214 100.828 160.134Z" fill="black"/>
<path d="M97.5042 99.8421C99.6438 101.607 100.759 102.626 100.759 104.747C100.759 106.869 99.6438 107.882 97.5071 109.652C96.8995 110.157 96.2947 110.658 95.7299 111.196C94.5909 112.277 94.5499 114.07 95.6386 115.201C96.7272 116.331 98.5333 116.372 99.6723 115.291C100.146 114.841 100.654 114.425 101.161 114.003C104.338 111.955 106.315 108.504 106.465 104.747C106.316 100.989 104.338 97.5361 101.159 95.4892C99.0219 93.7163 97.9065 92.6968 97.9065 90.5868C97.9065 88.4769 99.0219 87.4489 101.161 85.6817C101.766 85.1804 102.368 84.6791 102.93 84.1467C104.071 83.0673 104.114 81.2746 103.027 80.1421C101.94 79.0096 100.134 78.9664 98.9933 80.0458C98.5227 80.4933 98.0149 80.9124 97.5071 81.3287C94.3281 83.3756 92.3494 86.8283 92.2011 90.5868C92.3505 94.3436 94.3281 97.7945 97.5042 99.8421Z" fill="black"/>
<path d="M148.853 99.8421C150.992 101.607 152.108 102.626 152.108 104.747C152.108 106.869 150.992 107.882 148.856 109.652C148.248 110.157 147.643 110.658 147.078 111.196C145.939 112.277 145.898 114.07 146.987 115.201C148.076 116.331 149.882 116.372 151.021 115.291C151.491 114.844 152.002 114.425 152.51 114.005C155.686 111.956 157.662 108.505 157.813 104.747C157.665 100.989 155.686 97.5361 152.507 95.4892C150.37 93.7163 149.255 92.6968 149.255 90.5868C149.255 88.4769 150.37 87.4489 152.51 85.6817C153.115 85.1804 153.716 84.6791 154.278 84.1467C155.419 83.0673 155.463 81.2746 154.375 80.1421C153.288 79.0096 151.482 78.9664 150.342 80.0458C149.871 80.4933 149.363 80.9124 148.856 81.3287C145.677 83.3756 143.698 86.8283 143.549 90.5868C143.699 94.3436 145.677 97.7945 148.853 99.8421Z" fill="black"/>
<path d="M123.178 99.8421C125.318 101.607 126.433 102.626 126.433 104.747C126.433 106.869 125.318 107.882 123.181 109.652C122.574 110.157 121.969 110.658 121.404 111.196C120.265 112.277 120.224 114.07 121.313 115.201C122.401 116.331 124.208 116.372 125.346 115.291C125.82 114.841 126.328 114.425 126.836 114.003C130.012 111.955 131.99 108.504 132.139 104.747C131.99 100.989 130.012 97.5361 126.833 95.4892C124.696 93.7163 123.581 92.6968 123.581 90.5868C123.581 88.4769 124.696 87.4489 126.836 85.6817C127.44 85.1804 128.042 84.6791 128.604 84.1467C129.745 83.0673 129.788 81.2746 128.701 80.1421C127.614 79.0096 125.808 78.9664 124.668 80.0458C124.197 80.4933 123.689 80.9124 123.181 81.3287C120.002 83.3756 118.024 86.8283 117.875 90.5868C118.025 94.3436 120.002 97.7945 123.178 99.8421Z" fill="black"/>
<path d="M137.844 178.382H140.697C146.999 178.382 152.108 173.31 152.108 167.053V164.221H146.402V167.053C146.402 170.182 143.848 172.717 140.697 172.717H137.844V178.382Z" fill="black"/>
<path d="M137.844 158.557H132.139V164.221H137.844V158.557Z" fill="black"/>
<rect x="27" y="201.375" width="192" height="8.93501" rx="4.46751" fill="#29A639"/>
<rect x="27" y="199.404" width="192" height="12.8772" rx="6.43862" stroke="black" stroke-width="4"/>
<path d="M50 214.282H195V215.173C195 222.905 188.732 229.173 181 229.173H64.8917C56.6672 229.173 50 222.506 50 214.282Z" fill="#29A639"/>
<path d="M52 213.303H193V218.152C193 224.779 187.627 230.152 181 230.152H65C57.8203 230.152 52 224.331 52 217.152V213.303Z" stroke="black" stroke-width="4"/>
</svg>
