<svg width="30" height="30" viewBox="0 0 30 30" fill="none" xmlns="http://www.w3.org/2000/svg">
<circle cx="15" cy="15" r="15" fill="#29A639"/>
<path d="M6.16747 7.42359L7.42352 6.16755C7.53517 6.0559 7.64992 6.059 7.76777 6.17685L23.3241 21.7332C23.442 21.8511 23.4451 21.9658 23.3334 22.0774L22.0774 23.3335C21.9657 23.4451 21.851 23.442 21.7331 23.3242L6.17678 7.76784C6.05893 7.64999 6.05582 7.53524 6.16747 7.42359Z" fill="#F2EDF0"/>
<path d="M6.185 22.2552L21.7249 6.71528C21.8482 6.59195 21.9657 6.58611 22.0774 6.69776L23.3334 7.9538C23.4451 8.06545 23.4392 8.18294 23.3159 8.30627L7.77599 23.8462C7.65266 23.9695 7.53517 23.9754 7.42352 23.8637L6.16747 22.6077C6.05582 22.496 6.06167 22.3785 6.185 22.2552Z" fill="#F2EDF0"/>
</svg>
