<svg width="50" height="52" viewBox="0 0 50 52" fill="none" xmlns="http://www.w3.org/2000/svg">
<g clip-path="url(#clip0)">
<path d="M31.8919 23.2075C31.985 23.24 32.0812 23.2553 32.1742 23.2553C32.5412 23.2553 32.8834 23.0186 33.0074 22.6416C33.2828 21.8115 34.1636 21.3659 34.9712 21.6469C36.6977 22.2473 38.5814 21.2953 39.1666 19.5207C39.3234 19.0488 39.0769 18.5346 38.6169 18.3736C38.1549 18.2137 37.6567 18.4668 37.5003 18.9395C37.2257 19.7704 36.3448 20.216 35.5361 19.9342C33.8126 19.3365 31.9267 20.2865 31.3407 22.0604C31.1851 22.5322 31.4315 23.0464 31.8919 23.2075Z" fill="#E5E5E5"/>
<path d="M33.9736 16.9082C34.0671 16.9407 34.1628 16.956 34.2559 16.956C34.6229 16.956 34.9651 16.7193 35.0891 16.3422C35.2222 15.9397 35.4991 15.6144 35.8707 15.4263C36.2419 15.2386 36.6615 15.2116 37.0532 15.3479C38.7794 15.9484 40.6627 14.9964 41.2486 13.2206C41.4051 12.7487 41.1579 12.2345 40.6986 12.0734C40.2385 11.9108 39.7384 12.1667 39.5828 12.6394C39.3085 13.471 38.4292 13.917 37.619 13.6349C36.7813 13.3425 35.8844 13.4024 35.0925 13.8046C34.3006 14.2059 33.7077 14.9011 33.4236 15.761C33.266 16.2337 33.5132 16.7475 33.9736 16.9082Z" fill="#E5E5E5"/>
<path d="M36.0538 10.6092C36.1476 10.6418 36.243 10.657 36.3372 10.657C36.7042 10.657 37.0463 10.4199 37.1703 10.0429C37.3725 9.42994 38.0248 9.09994 38.6203 9.30805C39.355 9.56398 40.1427 9.51146 40.8385 9.15991C41.534 8.80718 42.0539 8.19813 42.3038 7.4429C42.4602 6.97103 42.2137 6.45683 41.7537 6.29614C41.2917 6.13428 40.7935 6.38903 40.6371 6.86168C40.5383 7.15915 40.3335 7.39979 40.0596 7.53814C39.7861 7.67609 39.4763 7.69726 39.186 7.59497C37.6708 7.06979 36.0175 7.90498 35.5037 9.4609C35.348 9.93473 35.5933 10.4481 36.0538 10.6092Z" fill="#E5E5E5"/>
<path d="M42.4277 23.1405C42.2747 23.0331 42.1023 22.9716 41.9261 22.948C43.6743 17.1108 44.6337 11.3923 44.7711 5.94537C44.8142 4.23229 43.9993 1.94504 42.3564 0.886465C41.5682 0.377753 40.2762 -0.0416014 38.5993 0.844922C35.971 2.2382 34.0915 6.33611 32.5816 9.6302C32.4946 9.81989 32.4092 10.0053 32.3249 10.1887C31.9911 8.61317 30.9775 7.26536 29.5363 6.56186C29.1968 4.88405 27.9014 3.56955 26.2736 3.22897C26.2561 3.13491 26.234 3.04242 26.2069 2.94953C25.8716 1.7726 24.8607 0.886465 23.6911 0.743806C23.0323 0.663463 22.3792 0.803378 21.8215 1.13886C21.3462 0.866869 20.8129 0.722251 20.2655 0.722251C18.7354 0.722251 17.4499 1.81884 17.1146 3.28619C15.4418 3.75414 14.215 5.33123 14.2021 7.16463C12.2936 7.67099 10.9031 9.44286 10.9031 11.5502C10.9031 12.1091 11.0053 12.6621 11.2014 13.1837C10.7063 13.812 10.4316 14.5986 10.4316 15.424C10.4316 15.9193 10.5308 16.3967 10.7185 16.8376C9.83958 15.8523 8.60247 15.0469 7.21316 15.0994C6.72717 15.1155 6.34532 15.5325 6.3602 16.0314C6.37508 16.5205 6.76608 16.9074 7.23949 16.9074C7.26924 16.9085 7.29632 16.9058 7.32455 16.9058C8.14929 16.9058 8.91566 17.4662 9.47337 18.1168C8.07795 18.5303 6.39529 19.2025 5.61061 20.7235C5.13797 21.641 5.08266 22.7662 5.39775 24.0556C5.24555 24.317 5.16201 24.6208 5.17765 24.9441L6.67529 46.8097C6.81186 49.5516 9.01141 51.6985 11.6828 51.6985H36.3829C39.0544 51.6985 41.2539 49.5516 41.3893 46.8262L42.9248 24.2002C42.9248 24.1951 42.9259 24.1896 42.9259 24.1842C42.9503 23.7671 42.763 23.3776 42.4277 23.1405ZM33.0424 12.7742C33.3911 12.1064 33.771 11.2778 34.1731 10.4003C35.4956 7.51462 37.3084 3.56328 39.4053 2.4514C40.1705 2.04616 40.8297 2.03793 41.421 2.41691C42.4407 3.07495 43.0411 4.73551 43.0117 5.89834C42.8771 11.243 41.9268 16.8674 40.1866 22.6173C40.1293 22.8062 40.0027 23.1875 39.8223 23.7111L38.3227 24.3954C38.2903 24.4107 38.2586 24.4271 38.2277 24.4467C37.7948 24.7136 37.3091 24.8453 36.8232 24.8508C36.3375 24.8453 35.8527 24.7136 35.4197 24.4467L34.7926 24.0599C34.0709 23.6151 33.2621 23.3929 32.4534 23.3929C32.4439 23.3929 32.4344 23.3944 32.4237 23.3944C31.6054 23.3889 30.7853 23.6088 30.0548 24.0599L29.4284 24.4467C29.079 24.6619 28.6929 24.7669 28.3019 24.812C28.324 24.7336 28.3496 24.6564 28.3725 24.5788C28.6136 23.7374 28.8722 22.9073 29.143 22.0839C29.246 21.7707 29.3536 21.4599 29.4608 21.1499C29.687 20.4962 29.9235 19.8511 30.1684 19.2099C30.2775 18.9234 30.384 18.6342 30.4965 18.3504C31.2644 16.4273 32.1109 14.5625 33.0424 12.7742ZM21.8257 14.9184C21.9283 14.7828 22.0287 14.6511 22.124 14.5225C22.124 14.521 22.1248 14.5198 22.1255 14.519C22.195 14.4242 22.2556 14.3254 22.3067 14.2266C22.5234 13.8085 22.5742 13.3382 22.4738 12.8788L26.1466 12.0538C26.1714 12.1695 26.1977 12.2843 26.2401 12.3909C26.4045 12.8048 26.6986 13.1493 27.1075 13.3899C27.2414 13.4659 27.3814 13.5416 27.5256 13.6203C27.6443 13.6846 27.7633 13.7512 27.8827 13.8183C27.9399 13.85 27.9979 13.8814 28.0551 13.9143C28.16 13.9746 28.2611 14.0417 28.3629 14.1075C28.4503 14.1628 28.5365 14.2196 28.6208 14.2803C28.7185 14.3497 28.8119 14.4265 28.905 14.5045C28.987 14.5731 29.0652 14.6483 29.1427 14.7252C29.2262 14.809 29.309 14.8949 29.3857 14.9889C29.5211 15.1551 29.6512 15.3279 29.7576 15.5349C29.3845 16.381 29.0336 17.2444 28.6941 18.1149C28.641 18.2497 28.585 18.381 28.5331 18.5154C27.5687 18.7666 26.6368 19.2369 25.4859 20.0784C24.0356 21.137 22.956 21.4184 21.1768 21.1534L20.6428 18.6412C20.2804 16.9426 21.0662 15.9139 21.8257 14.9184ZM26.1889 9.42836C26.2118 9.42405 26.2347 9.42131 26.2576 9.42131C26.4239 9.42131 26.5796 9.54359 26.6158 9.71525C26.644 9.84536 26.5964 9.94766 26.5647 9.99704C26.5338 10.046 26.4644 10.1319 26.3385 10.1597L21.4778 11.2527C21.2844 11.2963 21.0872 11.1642 21.0448 10.967C21.0029 10.7691 21.1303 10.5657 21.3229 10.5222L23.9055 9.94178L26.1889 9.42836ZM23.3451 23.4109C23.2783 23.4156 23.2104 23.4172 23.1437 23.4246C22.6638 23.4744 22.1904 23.599 21.741 23.8067L21.5728 23.0158C21.8265 23.0374 22.079 23.0593 22.3155 23.0593C23.8502 23.0593 25.0857 22.5898 26.5056 21.552C26.9527 21.2248 27.3486 20.9771 27.7251 20.7721C27.6443 21.008 27.5641 21.2428 27.4859 21.4799C27.4295 21.6496 27.3688 21.817 27.3143 21.9878C27.0556 22.7924 26.8092 23.6033 26.5796 24.4217L25.9944 24.0619C25.273 23.617 24.4643 23.3944 23.6556 23.3944C23.6449 23.3944 23.6339 23.3964 23.6232 23.3964C23.5301 23.3944 23.4374 23.4054 23.3451 23.4109ZM12.8204 14.0624L13.3968 13.5745L13.0229 12.9117C12.7887 12.4959 12.6647 12.0256 12.6647 11.5502C12.6647 10.0856 13.7813 8.89143 15.2068 8.83029L16.275 8.78405L16.0259 7.71528C15.9839 7.53656 15.9625 7.3602 15.9625 7.19285C15.9625 6.02846 16.8479 5.04787 17.9775 4.9593L18.7907 4.89581V3.99635C18.8163 3.1839 19.4682 2.53018 20.2663 2.53018C20.7256 2.53018 21.0548 2.74534 21.2493 2.92602L21.8661 3.49822L22.4574 2.89819C22.7283 2.62345 23.1006 2.49491 23.4843 2.53998C23.9558 2.5972 24.3815 2.97501 24.5189 3.4606C24.5654 3.62324 24.5788 3.7804 24.5605 3.9407L24.4575 4.95028H25.4481C26.7127 4.95028 27.7701 5.96575 27.8575 7.26183L27.8972 7.85598L28.4434 8.05272C29.8186 8.54929 30.7235 9.88612 30.6926 11.3825C30.6792 12.0217 30.4786 12.637 30.115 13.1767C29.5264 12.6633 28.892 12.3172 28.3587 12.0288C28.2207 11.9535 28.0871 11.8814 27.9525 11.8046C27.9143 11.7826 27.8686 11.745 27.8529 11.6498C27.8319 11.5196 27.8792 11.3633 27.9754 11.2484C28.3587 10.7911 28.5129 10.1675 28.3889 9.57886L28.2824 9.08073C28.176 8.5779 27.8838 8.14874 27.4615 7.87009C27.04 7.59261 26.5384 7.49972 26.0501 7.60985L25.814 7.66315C25.8113 7.66394 25.809 7.66315 25.8063 7.66394L23.2238 8.24437L20.7038 8.80952C20.2155 8.91926 19.7974 9.21829 19.5266 9.65293C19.2554 10.086 19.1657 10.6022 19.2722 11.1038L19.3248 11.3496V11.3523C19.3248 11.3535 19.3259 11.3543 19.3259 11.3562L19.3778 11.6012C19.5052 12.2032 19.9126 12.7103 20.4662 12.9545C20.6035 13.0148 20.7179 13.1297 20.7576 13.2464C20.7805 13.3135 20.7671 13.3476 20.716 13.4346V13.4354C20.629 13.5557 20.5348 13.6776 20.4391 13.8034C20.3422 13.93 20.2419 14.0628 20.1396 14.2004C20.1053 14.2462 20.0729 14.294 20.0385 14.3411C19.9653 14.4434 19.8924 14.5472 19.8203 14.6558C19.7807 14.7146 19.7429 14.7753 19.704 14.8369C19.6372 14.9427 19.5728 15.0516 19.5094 15.1641C19.4728 15.2292 19.4366 15.2934 19.4015 15.3609C19.3351 15.4874 19.2756 15.6203 19.2165 15.7563C19.1909 15.8139 19.1638 15.8692 19.1409 15.9299C19.0635 16.1267 18.9948 16.3328 18.9403 16.5499C18.9315 16.5844 18.9281 16.6213 18.9201 16.6565C18.8777 16.8411 18.8434 17.0316 18.8213 17.2307C18.8129 17.3103 18.811 17.3934 18.8056 17.4757C18.7984 17.5823 18.7854 17.6838 18.7854 17.7947C18.7816 17.7904 18.7782 17.7857 18.7747 17.7814C18.7625 17.7649 18.7499 17.7504 18.7385 17.7343C18.5855 17.527 18.4322 17.3365 18.2784 17.1555C18.23 17.0986 18.1808 17.0438 18.1316 16.9893C18.0022 16.8458 17.8729 16.711 17.7425 16.5844C17.7005 16.5437 17.6582 16.4994 17.6151 16.4594C17.4506 16.3085 17.2851 16.1702 17.1188 16.0471C17.0722 16.013 17.0245 15.984 16.978 15.9515C16.8529 15.8653 16.7281 15.7857 16.6011 15.7155C16.5397 15.6811 16.479 15.6477 16.4165 15.6168C16.2853 15.5509 16.1533 15.4949 16.0205 15.4459C15.9766 15.4298 15.9324 15.4079 15.8885 15.3934C15.7443 15.3464 15.5994 15.3083 15.4533 15.2805C15.4365 15.277 15.4197 15.2786 15.4029 15.2762C15.3732 15.2707 15.3442 15.259 15.314 15.2543C15.2118 15.239 15.1149 15.2452 15.0146 15.2378C14.9444 15.2335 14.875 15.2182 14.8044 15.2182C14.7834 15.2182 14.7613 15.2237 14.7395 15.2237C14.603 15.2253 14.471 15.2417 14.3382 15.2586C14.2722 15.2676 14.2063 15.2731 14.1403 15.2856C13.9667 15.3181 13.7988 15.3636 13.6325 15.4177C13.607 15.4259 13.5822 15.4322 13.5566 15.4412C13.1187 15.594 12.7033 15.8104 12.3145 16.0714C12.2344 15.868 12.1921 15.6493 12.1921 15.424C12.1932 14.8949 12.4221 14.3987 12.8204 14.0624ZM7.16701 21.5685C7.53932 20.8481 8.44302 20.2983 10.012 19.8374C10.7459 19.6222 11.4269 19.2197 11.9796 18.6773C12.2302 18.4308 12.4652 18.2219 12.6922 18.0322C13.4014 17.44 14.0128 17.1178 14.5664 17.0445C14.5789 17.043 14.5912 17.041 14.6034 17.0402C14.7785 17.0202 14.9482 17.0257 15.113 17.0555C15.1561 17.0637 15.2 17.079 15.2442 17.0908C15.3259 17.1116 15.4067 17.1323 15.4887 17.166C15.5414 17.1868 15.594 17.2186 15.6478 17.2436C15.7241 17.2817 15.8 17.3161 15.8767 17.364C15.9366 17.4008 15.9961 17.449 16.056 17.4913C16.1273 17.5427 16.1987 17.5897 16.2708 17.6497C16.3375 17.7045 16.4047 17.7716 16.4714 17.8339C16.5382 17.8962 16.6053 17.9534 16.6721 18.0228C16.7461 18.0996 16.8208 18.189 16.8956 18.2752C16.9563 18.3445 17.0169 18.4088 17.0787 18.4841C17.1623 18.5871 17.2466 18.7043 17.3309 18.8184C17.3846 18.8909 17.4377 18.9559 17.4911 19.0328C17.5872 19.1703 17.6837 19.3228 17.7806 19.4748C17.823 19.5415 17.8661 19.6014 17.908 19.67C18.048 19.8969 18.1888 20.1384 18.3303 20.3951C18.978 21.5693 19.1928 23.3039 18.9113 24.8148C18.8644 24.81 18.8186 24.803 18.7721 24.7955C18.4367 24.7368 18.114 24.6266 17.8199 24.4456L17.1924 24.0587C16.471 23.6139 15.6623 23.3917 14.8536 23.3917C14.8441 23.3917 14.8345 23.3933 14.8238 23.3933C14.0056 23.3878 13.1854 23.6076 12.4549 24.0587L12.1498 24.2469C11.6172 24.5749 11.021 24.7403 10.4244 24.7458C9.82661 24.7403 9.23113 24.5757 8.69898 24.2469L7.51529 23.5163C7.51529 23.5163 7.51452 23.5163 7.51452 23.5155C7.3585 23.4207 7.19066 23.3552 7.01823 23.3231C6.88014 22.6078 6.92935 22.0294 7.16701 21.5685ZM39.6365 46.7164C39.5476 48.4953 38.1198 49.8894 36.3864 49.8894H11.6855C9.95097 49.8894 8.52389 48.4953 8.43425 46.6992L6.96979 25.3262L7.73539 25.7985C8.56509 26.3099 9.49702 26.5615 10.4263 26.5561C11.3563 26.5615 12.2871 26.3103 13.1168 25.7985L13.4223 25.6103C13.8549 25.3427 14.3401 25.2106 14.8258 25.2051C15.3114 25.2106 15.7962 25.3427 16.2299 25.6103L16.8575 25.9972C17.6513 26.4863 18.5504 26.696 19.4392 26.6462C19.5182 26.6427 19.5976 26.6427 19.6777 26.6356C19.6872 26.6344 19.6964 26.6289 19.7066 26.6282C20.3075 26.5588 20.8972 26.3644 21.4408 26.0462C21.4919 26.027 21.5465 26.0262 21.5942 25.9972L22.2217 25.6103C22.6543 25.3427 23.1391 25.2106 23.6251 25.2051C24.1107 25.2106 24.5956 25.3427 25.0293 25.6103L25.6568 25.9972C26.3228 26.4067 27.064 26.6192 27.809 26.6509C27.8239 26.6517 27.8399 26.6536 27.8548 26.6536C28.1116 26.6619 28.3687 26.6536 28.6239 26.6164C28.77 26.5972 28.9115 26.5596 29.0549 26.5259C29.1244 26.509 29.1942 26.4933 29.2628 26.4726C29.6535 26.3617 30.0361 26.2159 30.3924 25.9964L31.0199 25.6092C31.4528 25.3419 31.9377 25.2098 32.4233 25.2043C32.9089 25.2098 33.3941 25.3419 33.8279 25.6092L34.4554 25.9964C35.1821 26.4436 35.9977 26.6634 36.8125 26.6599C36.8258 26.6599 36.8396 26.6627 36.8529 26.6627C37.6433 26.6627 38.4341 26.451 39.1432 26.0262L40.8698 25.2376C40.9068 25.2208 40.9331 25.1879 40.9674 25.1663L41.1021 25.1048L39.6365 46.7164Z" fill="#E5E5E5"/>
<path d="M10.456 39.2049H16.6156C17.1012 39.2049 17.4957 38.8008 17.4957 38.3007C17.4957 37.801 17.1012 37.3966 16.6156 37.3966H10.456C9.97041 37.3966 9.57635 37.801 9.57635 38.3007C9.57635 38.8008 9.97041 39.2049 10.456 39.2049Z" fill="#E5E5E5"/>
<path d="M10.456 42.8211H18.3753C18.8613 42.8211 19.2554 42.4171 19.2554 41.917C19.2554 41.4169 18.8613 41.0128 18.3753 41.0128H10.456C9.97041 41.0128 9.57635 41.4169 9.57635 41.917C9.57635 42.4171 9.97041 42.8211 10.456 42.8211Z" fill="#E5E5E5"/>
<path d="M20.1351 44.6291H10.456C9.97041 44.6291 9.57635 45.0331 9.57635 45.5332C9.57635 46.0329 9.97041 46.437 10.456 46.437H20.1351C20.6207 46.437 21.0151 46.0329 21.0151 45.5332C21.0151 45.0331 20.6207 44.6291 20.1351 44.6291Z" fill="#E5E5E5"/>
<path d="M25.4146 44.6291H23.6549C23.1689 44.6291 22.7748 45.0331 22.7748 45.5332C22.7748 46.0329 23.1689 46.437 23.6549 46.437H25.4146C25.9002 46.437 26.2947 46.0329 26.2947 45.5332C26.2947 45.0331 25.9006 44.6291 25.4146 44.6291Z" fill="#E5E5E5"/>
</g>
<defs>
<clipPath id="clip0">
<rect width="50" height="51.3699" fill="white" transform="translate(-6.10352e-05 0.328766)"/>
</clipPath>
</defs>
</svg>
