<svg width="23" height="23" viewBox="0 0 23 23" fill="none" xmlns="http://www.w3.org/2000/svg">
<path d="M11.2368 0H13.0132C13.1711 0 13.25 0.0833333 13.25 0.25V22.25C13.25 22.4167 13.1711 22.5 13.0132 22.5H11.2368C11.0789 22.5 11 22.4167 11 22.25V0.25C11 0.0833333 11.0789 0 11.2368 0Z" fill="black"/>
<path d="M0.761628 10.5H22.7384C22.9128 10.5 23 10.5789 23 10.7368V12.5132C23 12.6711 22.9128 12.75 22.7384 12.75H0.761628C0.587209 12.75 0.5 12.6711 0.5 12.5132V10.7368C0.5 10.5789 0.587209 10.5 0.761628 10.5Z" fill="black"/>
</svg>
